<svg xmlns="http://www.w3.org/2000/svg" xmlns:xlink="http://www.w3.org/1999/xlink" version="1.1" x="0px" y="0px" viewBox="0 0 100 125" enable-background="new 0 0 100 100" xml:space="preserve"><path d="M3.776,27.235h92.945v46.626H3.776V27.235z M4.356,58.123h91.785V42.971H4.356V58.123z"/><path d="M56.41,50.545c0,3.406-2.758,6.164-6.162,6.164c-3.404,0-6.162-2.758-6.162-6.164c0-3.402,2.758-6.16,6.162-6.16  C53.652,44.385,56.41,47.143,56.41,50.545L56.41,50.545z M55.656,50.545c0-2.984-2.422-5.406-5.408-5.406  c-2.986,0-5.408,2.422-5.408,5.406c0,2.986,2.422,5.41,5.408,5.41C53.234,55.955,55.656,53.531,55.656,50.545L55.656,50.545z   M50.249,46.29l-3.688,6.386h7.375L50.249,46.29z"/><text x="0" y="115" fill="#000000" font-size="5px" font-weight="bold" font-family="'Helvetica Neue', Helvetica, Arial-Unicode, Arial, Sans-serif">Created by Aldric Rodríguez</text><text x="0" y="120" fill="#000000" font-size="5px" font-weight="bold" font-family="'Helvetica Neue', Helvetica, Arial-Unicode, Arial, Sans-serif">from the Noun Project</text></svg>